<svg xmlns="http://www.w3.org/2000/svg" width="600" height="512" class="svgbob">
  <style>
    .svgbob line, .svgbob path, .svgbob circle, .svgbob rect, .svgbob polygon {
    stroke: black;
    stroke-width: 2;
    stroke-opacity: 1;
    fill-opacity: 1;
    stroke-linecap: round;
    stroke-linejoin: miter;
}
.svgbob text {
    white-space: pre;
    fill: black;
    font-family: Iosevka Fixed, monospace;
    font-size: 14px;
}
.svgbob rect.backdrop {
    stroke: none;
    fill: white;
}
.svgbob .broken {
    stroke-dasharray: 8;
}
.svgbob .filled {
    fill: black;
}
.svgbob .bg_filled {
    fill: white;
}
.svgbob .nofill {
    fill: white;
}
.svgbob .end_marked_arrow {
    marker-end: url(#arrow);
}
.svgbob .start_marked_arrow {
    marker-start: url(#arrow);
}
.svgbob .end_marked_diamond {
    marker-end: url(#diamond);
}
.svgbob .start_marked_diamond {
    marker-start: url(#diamond);
}
.svgbob .end_marked_circle {
    marker-end: url(#circle);
}
.svgbob .start_marked_circle {
    marker-start: url(#circle);
}
.svgbob .end_marked_open_circle {
    marker-end: url(#open_circle);
}
.svgbob .start_marked_open_circle {
    marker-start: url(#open_circle);
}
.svgbob .end_marked_big_open_circle {
    marker-end: url(#big_open_circle);
}
.svgbob .start_marked_big_open_circle {
    marker-start: url(#big_open_circle);
}
    <!--separator-->
    
  </style>
  <defs>
    <marker id="arrow" viewBox="-2 -2 8 8" refX="4" refY="2" markerWidth="7" markerHeight="7" orient="auto-start-reverse">
      <polygon points="0,0 0,4 4,2 0,0"></polygon>
    </marker>
    <marker id="diamond" viewBox="-2 -2 8 8" refX="4" refY="2" markerWidth="7" markerHeight="7" orient="auto-start-reverse">
      <polygon points="0,2 2,0 4,2 2,4 0,2"></polygon>
    </marker>
    <marker id="circle" viewBox="0 0 8 8" refX="4" refY="4" markerWidth="7" markerHeight="7" orient="auto-start-reverse">
      <circle cx="4" cy="4" r="2" class="filled"></circle>
    </marker>
    <marker id="open_circle" viewBox="0 0 8 8" refX="4" refY="4" markerWidth="7" markerHeight="7" orient="auto-start-reverse">
      <circle cx="4" cy="4" r="2" class="bg_filled"></circle>
    </marker>
    <marker id="big_open_circle" viewBox="0 0 8 8" refX="4" refY="4" markerWidth="7" markerHeight="7" orient="auto-start-reverse">
      <circle cx="4" cy="4" r="3" class="bg_filled"></circle>
    </marker>
  </defs>
  <rect class="backdrop" x="0" y="0" width="600" height="512"></rect>
  <text x="202" y="28" >ELF</text>
  <text x="426" y="28" >Virtual</text>
  <text x="490" y="28" >Address</text>
  <text x="554" y="28" >Space</text>
  <text x="26" y="44" >File</text>
  <text x="66" y="44" >Header</text>
  <line x1="120" y1="40" x2="144" y2="40" class="solid"></line>
  <polygon points="144,36 152,40 144,44" class="filled"></polygon>
  <polygon points="152,36 160,40 152,44" class="filled"></polygon>
  <text x="26" y="60" >Program</text>
  <text x="90" y="60" >Header</text>
  <line x1="136" y1="56" x2="144" y2="56" class="solid"></line>
  <polygon points="144,52 152,56 144,60" class="filled"></polygon>
  <polygon points="152,52 160,56 152,60" class="filled"></polygon>
  <text x="466" y="60" >Kernel</text>
  <text x="466" y="76" >Address</text>
  <text x="170" y="92" >.bss</text>
  <text x="466" y="92" >Space</text>
  <text x="170" y="124" >.rodata</text>
  <text x="170" y="156" >.data</text>
  <text x="170" y="188" >.text</text>
  <text x="170" y="204" >&gt;</text>
  <text x="186" y="204" >executable</text>
  <text x="186" y="220" >code</text>
  <text x="450" y="236" >Environment</text>
  <text x="450" y="252" >variables</text>
  <text x="530" y="252" >&amp;</text>
  <text x="450" y="268" >CLI</text>
  <text x="482" y="268" >arguments</text>
  <text x="450" y="300" >Stack</text>
  <text x="450" y="348" >Heap</text>
  <polygon points="432,372 440,376 432,380" class="filled"></polygon>
  <text x="530" y="380" >.bss</text>
  <polygon points="432,404 440,408 432,412" class="filled"></polygon>
  <text x="506" y="412" >.rodata</text>
  <polygon points="432,436 440,440 432,444" class="filled"></polygon>
  <text x="522" y="444" >.data</text>
  <text x="170" y="476" >linker</text>
  <text x="226" y="476" >metadata</text>
  <polygon points="432,468 440,472 432,476" class="filled"></polygon>
  <text x="522" y="476" >.text</text>
  <g>
    <path d="M 168,40 A 4,4 0,0,0 164,44" class="nofill"></path>
    <line x1="164" y1="44" x2="164" y2="484" class="solid"></line>
    <line x1="168" y1="40" x2="288" y2="40" class="solid"></line>
    <path d="M 288,40 A 4,4 0,0,1 292,44" class="nofill"></path>
    <line x1="292" y1="44" x2="292" y2="484" class="solid"></line>
    <line x1="164" y1="56" x2="292" y2="56" class="solid"></line>
    <line x1="164" y1="72" x2="292" y2="72" class="solid"></line>
    <line x1="292" y1="88" x2="416" y2="88" class="solid"></line>
    <path d="M 416,88 A 4,4 0,0,1 420,92" class="nofill"></path>
    <line x1="420" y1="92" x2="420" y2="372" class="solid"></line>
    <line x1="164" y1="104" x2="292" y2="104" class="solid"></line>
    <line x1="292" y1="120" x2="392" y2="120" class="solid"></line>
    <path d="M 392,120 A 4,4 0,0,1 396,124" class="nofill"></path>
    <line x1="396" y1="124" x2="396" y2="404" class="solid"></line>
    <line x1="164" y1="136" x2="292" y2="136" class="solid"></line>
    <line x1="292" y1="152" x2="368" y2="152" class="solid"></line>
    <path d="M 368,152 A 4,4 0,0,1 372,156" class="nofill"></path>
    <line x1="372" y1="156" x2="372" y2="436" class="solid"></line>
    <line x1="164" y1="168" x2="292" y2="168" class="solid"></line>
    <line x1="292" y1="184" x2="344" y2="184" class="solid"></line>
    <path d="M 344,184 A 4,4 0,0,1 348,188" class="nofill"></path>
    <line x1="348" y1="188" x2="348" y2="468" class="solid"></line>
    <path d="M 420,372 A 4,4 0,0,0 424,376" class="nofill"></path>
    <line x1="424" y1="376" x2="432" y2="376" class="solid"></line>
    <path d="M 396,404 A 4,4 0,0,0 400,408" class="nofill"></path>
    <line x1="400" y1="408" x2="432" y2="408" class="solid"></line>
    <path d="M 372,436 A 4,4 0,0,0 376,440" class="nofill"></path>
    <line x1="376" y1="440" x2="432" y2="440" class="solid"></line>
    <line x1="164" y1="456" x2="292" y2="456" class="solid"></line>
    <path d="M 348,468 A 4,4 0,0,0 352,472" class="nofill"></path>
    <line x1="352" y1="472" x2="432" y2="472" class="solid"></line>
    <path d="M 164,484 A 4,4 0,0,0 168,488" class="nofill"></path>
    <line x1="168" y1="488" x2="288" y2="488" class="solid"></line>
    <path d="M 292,484 A 4,4 0,0,1 288,488" class="nofill"></path>
  </g>
  <g>
    <path d="M 448,40 A 4,4 0,0,0 444,44" class="nofill"></path>
    <line x1="444" y1="44" x2="444" y2="484" class="solid"></line>
    <line x1="448" y1="40" x2="568" y2="40" class="solid"></line>
    <path d="M 568,40 A 4,4 0,0,1 572,44" class="nofill"></path>
    <line x1="572" y1="44" x2="572" y2="484" class="solid"></line>
    <line x1="444" y1="216" x2="572" y2="216" class="solid"></line>
    <line x1="444" y1="280" x2="572" y2="280" class="solid"></line>
    <line x1="444" y1="328" x2="572" y2="328" class="solid"></line>
    <path d="M 444,484 A 4,4 0,0,0 448,488" class="nofill"></path>
    <line x1="448" y1="488" x2="568" y2="488" class="solid"></line>
    <path d="M 572,484 A 4,4 0,0,1 568,488" class="nofill"></path>
  </g>
  <g>
    <line x1="452" y1="352" x2="452" y2="480" class="solid"></line>
    <line x1="452" y1="360" x2="564" y2="360" class="solid"></line>
    <line x1="564" y1="352" x2="564" y2="480" class="solid"></line>
    <line x1="452" y1="392" x2="564" y2="392" class="solid"></line>
    <line x1="452" y1="424" x2="564" y2="424" class="solid"></line>
    <line x1="452" y1="456" x2="564" y2="456" class="solid"></line>
  </g>
</svg>